HIERARCHY
ROOT Hips
{
	OFFSET	0.00	0.00	0.00
	CHANNELS 6 Xposition Yposition Zposition Zrotation Xrotation Yrotation
	JOINT Spine
	{
		OFFSET	 0.00	0.01	 0.00
		CHANNELS 3 Zrotation Xrotation Yrotation
		JOINT Spine1
		{
			OFFSET	 0.00	 2.45913012437421	 0.00
			CHANNELS 3 Zrotation Xrotation Yrotation
            JOINT Neck
            {
                OFFSET	 0.00	 2.48462964506057	 0.00
                CHANNELS 3 Zrotation Xrotation Yrotation
                JOINT Head
                {
                    OFFSET	 0.00	 0.927524780924562	 0.00
                    CHANNELS 3 Zrotation Xrotation Yrotation
                    End Site 
                    {
                        OFFSET	 0.00	 1.14999962169752	 0.00
                    }
                }
            }
			JOINT LeftShoulder
			{
				OFFSET	 0.00	 2.48462964506057	 0.00
				CHANNELS 3 Zrotation Xrotation Yrotation
				JOINT LeftUpArm
				{
					OFFSET	 0.00	 1.24881979654096	 0.00
					CHANNELS 3 Zrotation Xrotation Yrotation
					JOINT LeftForeArm
					{
						OFFSET	 0.00	2.59758046908119	 0.00
						CHANNELS 3 Zrotation Xrotation Yrotation
						JOINT LeftHand
						{
							OFFSET	 0.00	2.45542024364365	 0.00
							CHANNELS 3 Zrotation Xrotation Yrotation
							JOINT LeftHandThumb 
							{
								OFFSET	 0.00	0.00	 0.00
								CHANNELS 3 Zrotation Xrotation Yrotation
								End Site
								{
									OFFSET	 0.00	0.00	1.00000003353624
								}
							}
							JOINT L_Wrist_End 
							{
								OFFSET	 0.00	0.99999967115358	 0.00
								CHANNELS 3 Zrotation Xrotation Yrotation
								End Site 
								{
									OFFSET	 0.00	 0.00	 0.00
								}
							}
						}
					}
				}
			}
			JOINT RightShoulder
			{
				OFFSET	 0.00	 2.48462964506057	 0.00
				CHANNELS 3 Zrotation Xrotation Yrotation
				JOINT RightUpArm
				{
					OFFSET	 0.00	 1.24881979654096	 0.00
					CHANNELS 3 Zrotation Xrotation Yrotation
					JOINT RightForeArm
					{
						OFFSET	 0.00	2.59758046908119	 0.00
						CHANNELS 3 Zrotation Xrotation Yrotation
						JOINT RightHand
						{
							OFFSET	 0.00	2.45542024364365	 0.00
							CHANNELS 3 Zrotation Xrotation Yrotation
							JOINT RightHandThumb 
							{
								OFFSET	 0.00	0.00	 0.00
								CHANNELS 3 Zrotation Xrotation Yrotation
								End Site
								{
									OFFSET	 0.00	0.00	1.00000003353624
								}
							}
							JOINT R_Wrist_End 
							{
								OFFSET	 0.00	0.99999967115358	 0.00
								CHANNELS 3 Zrotation Xrotation Yrotation
								End Site 
								{
									OFFSET	 0.00	 0.00	 0.00
								}
							}
						}
					}
				}
			}
		}
	}
	JOINT LeftUpLeg
	{
		OFFSET	 1.2719394002717	 0.00	 0.00
		CHANNELS 3 Zrotation Xrotation Yrotation
		JOINT LeftLowLeg
		{
			OFFSET	 0.00	-4.3429100912261	 0.00
			CHANNELS 3 Zrotation Xrotation Yrotation
			JOINT LeftFoot
			{
				OFFSET	 0.00	-4.48767017425826	 0.00
				CHANNELS 3 Zrotation Xrotation Yrotation
				JOINT LeftToeBase
                {
                    OFFSET	 0.00	0.00	 1.51507020887566
                    CHANNELS 3 Zrotation Xrotation Yrotation
                    End Site 
                    {
                        OFFSET	 0.00	0.00	 0.75000010571191
                    }
                }
			}
		}
	}
	JOINT RightUpLeg
	{
		OFFSET	 -1.2719393604653	 0.00	 0.00
		CHANNELS 3 Zrotation Xrotation Yrotation
		JOINT RightLowLeg
		{
			OFFSET	 0.00	-4.3429100912261	 0.00
			CHANNELS 3 Zrotation Xrotation Yrotation
			JOINT RightFoot
			{
				OFFSET	 0.00	-4.48767017425826	 0.00
				CHANNELS 3 Zrotation Xrotation Yrotation
				JOINT RightToeBase
                {
                    OFFSET	 0.00	0.00	 1.51507020887566
                    CHANNELS 3 Zrotation Xrotation Yrotation
                    End Site 
                    {
                        OFFSET	 0.00	0.00	 0.749999965609858
                    }
                }   
			}
		}
	}
}
MOTION 
Frames:	10 
Frame Time: 0.02 
  9.084080200195313 18.66780029296875 9.178090209960937 75.185 78.6698 -214.114 9.83436 -16.7578 6.17743 -2.31837 9.98958 2.4572 -21.4268 44.743 16.5027 -14.3009 -63.0813 9.99732 -113.394196 -4.27294 1.74249 -48.2792 -13.5582 -335.757 0.0 51.3287 0.0 12.4596 -0.649713 -12.5735 0.0 0.0 0.0 0.0 0.0 0.0 118.1391 -1.90423 -1.39043 42.2303 11.1174 2.40533 0.0 2.29347 0.0 -6.11367 -2.39749 -27.7168 0.0 0.0 0.0 0.0 0.0 0.0 -2.53099 -29.345 5.16068 0.0 4.54801 0.0 -3.72906 -5.0939007 17.5542 0.0 -11.89131 0.0 12.6364 -0.359122 379.012 0.0 17.0879 0.0 2.47617 -9.983801 -26.2893 0.0 -19.05455 0.0 
  8.979039916992187 18.7856005859375 9.147130126953124 74.3371 78.7344 -213.124 9.60835 -16.7305 6.45178 -2.71803 9.8195 2.88509 -21.513 44.2268 16.73 -14.6576 -63.4405 9.52254 -113.3067 -4.22559 1.70547 -47.9047 -13.567 -335.523 0.0 51.8242 0.0 12.4235 -0.555883 -12.2688 0.0 0.0 0.0 0.0 0.0 0.0 118.1805 -1.82245 -1.56286 42.7696 10.7236 2.70875 0.0 1.78387 0.0 -5.78699 -2.55104 -27.8943 0.0 0.0 0.0 0.0 0.0 0.0 -2.38521 -30.235 6.52493 0.0 7.45112 0.0 -1.49862 -4.9291 20.1806 0.0 -12.0249 0.0 12.4015 0.703537 378.603 0.0 16.9289 0.0 2.35399 -10.560699 -26.161 0.0 -19.21643 0.0 
  8.865139770507813 18.90550048828125 9.112579956054688 73.4689 78.7113 -212.15 9.42031 -16.9002 6.7452 -3.0798 9.67826 3.35571 -21.3987 43.8128 16.7663 -14.8475 -63.68 9.35393 -113.127 -4.33123 1.60466 -47.6819 -13.5347 -335.155 0.0 52.4036 0.0 12.9523 -0.657031 -11.6108 0.0 0.0 0.0 0.0 0.0 0.0 118.1839 -1.76397 -1.74058 43.2619 10.2785 2.66429 0.0 1.34281 0.0 -5.5299 -2.76269 -27.8643 0.0 0.0 0.0 0.0 0.0 0.0 -2.17953 -31.0223 8.31061 0.0 10.5167 0.0 -0.254823 -4.621401 22.4091 0.0 -12.55841 0.0 12.1765 1.64223 377.988 0.0 16.9559 0.0 2.23254 -11.0905 -25.8709 0.0 -19.50111 0.0 
  8.74093017578125 19.028800048828124 9.078469848632812 71.5363 78.7126 -210.151 9.07071 -17.2905 6.91784 -3.47693 9.52028 3.83395 -21.3935 43.545 16.9597 -14.7667 -63.9 9.47697 -113.0786 -4.40367 1.44546 -47.3791 -13.8642 -335.119 0.0 53.2873 0.0 13.3346 -1.05509 -10.7299 0.0 0.0 0.0 0.0 0.0 0.0 118.287704 -1.64881 -1.92196 43.6313 9.80947 2.49561 0.0 0.794329 0.0 -5.5107 -2.69146 -28.0433 0.0 0.0 0.0 0.0 0.0 0.0 -2.16191 -31.4967 10.7208 0.0 12.9676 0.0 -1.68169 -4.372801 23.4958 0.0 -12.82523 0.0 11.7252 2.3795 377.1 0.0 17.3613 0.0 2.60822 -11.8382 -24.9138 0.0 -19.824669 0.0 
  8.610089721679687 19.1431005859375 9.051920166015625 68.8037 78.8839 -206.961 8.60227 -17.5392 6.90558 -4.11412 9.19889 4.08467 -21.5474 43.4504 17.3163 -14.4955 -64.1591 9.69696 -113.221 -4.43336 1.33291 -46.902 -14.2253 -335.31 0.0 54.0998 0.0 14.12 -1.20292 -9.64329 0.0 0.0 0.0 0.0 0.0 0.0 118.666504 -1.62159 -1.99539 43.7164 9.29963 2.63846 0.0 0.399758 0.0 -5.56121 -2.70273 -28.2099 0.0 0.0 0.0 0.0 0.0 0.0 -2.81424 -31.7445 12.1887 0.0 14.6362 0.0 0.0422198 -1.8299999 25.7142 0.0 -13.47448 0.0 11.0018 2.88388 375.483 0.0 18.3506 0.0 3.60667 -12.639799 -23.1157 0.0 -20.28482 0.0 
  8.471389770507812 19.257099609375 9.036409912109375 65.5093 78.886 -202.902 8.28756 -18.0558 6.91679 -5.10891 8.89374 4.23078 -21.7186 43.4725 17.7244 -13.9971 -64.3054 10.2894 -113.2304 -4.26245 1.3551 -46.5145 -14.673 -336.112 0.0 54.672 0.0 14.4114 -0.925965 -7.62998 0.0 0.0 0.0 0.0 0.0 0.0 119.1818 -1.80038 -1.97712 43.8612 8.69701 2.5583 0.0 0.302054 0.0 -5.88869 -2.78476 -27.874 0.0 0.0 0.0 0.0 0.0 0.0 -3.78391 -32.1958 11.5006 0.0 16.641 0.0 2.08327 1.7420998 25.5862 0.0 -13.8166 0.0 10.2478 2.91615 373.512 0.0 19.9156 0.0 4.83484 -12.912901 -21.1056 0.0 -21.477001 0.0 
  8.330819702148437 19.37 9.030960083007812 63.1639 78.8409 -199.483 7.87364 -18.6728 6.74914 -5.74633 8.77594 4.33902 -21.6129 43.5578 17.6977 -13.8067 -64.272 10.7462 -113.1913 -4.12145 1.66832 -46.2111 -14.6778 -336.703 0.0 55.1086 0.0 13.9847 -0.691722 -7.87016 0.0 0.0 0.0 0.0 0.0 0.0 119.4095 -2.08242 -1.8553 44.2331 7.51981 -0.248364 0.0 1.52179 0.0 -6.52075 -3.76849 -24.9155 0.0 0.0 0.0 0.0 0.0 0.0 -4.71365 -32.8344 10.8885 0.0 19.1487 0.0 7.5427 5.44378 24.9675 0.0 -13.91481 0.0 9.78995 2.72411 372.005 0.0 21.9878 0.0 6.26899 -12.5403 -19.6885 0.0 -23.54224 0.0 
  8.185029907226562 19.484599609375 9.031389770507813 63.29 79.0725 -198.413 7.54292 -19.0177 6.58588 -5.89382 8.77855 4.44222 -21.5865 43.6557 17.654 -13.6321 -63.9544 11.1467 -112.867096 -3.86479 1.9374 -46.3166 -14.8452 -336.775 0.0 55.5953 0.0 14.2218 -1.26641 -7.68644 0.0 0.0 0.0 0.0 0.0 0.0 119.1549 -2.52321 -1.68217 44.8477 6.7983 0.0164797 0.0 1.6787 0.0 -6.6732 -3.61464 -24.699 0.0 0.0 0.0 0.0 0.0 0.0 -5.58746 -32.8599 8.50976 0.0 21.6438 0.0 6.39469 4.1272 26.3151 0.0 -12.97089 0.0 9.74912 2.72234 370.674 0.0 24.5122 0.0 8.27557 -11.558201 -18.2065 0.0 -26.2858 0.0 
  8.033839721679687 19.598199462890626 9.03989013671875 64.8357 79.4967 -198.711 7.31068 -19.1306 6.45637 -5.8388 8.68177 4.48564 -21.9009 43.8203 17.9522 -13.2256 -63.4425 11.678 -112.235596 -3.72971 2.28035 -46.7636 -15.1366 -336.355 0.0 56.1439 0.0 13.146 -1.88643 -14.172 0.0 0.0 0.0 0.0 0.0 0.0 118.827805 -2.96903 -1.63666 45.3814 6.09859 0.180797 0.0 1.6654 0.0 -6.61311 -3.43589 -24.5831 0.0 0.0 0.0 0.0 0.0 0.0 -6.41741 -32.2807 6.54165 0.0 23.6002 0.0 8.06339 3.8189 27.2823 0.0 -13.28152 0.0 9.81971 2.73516 369.267 0.0 27.3768 0.0 10.5151 -9.6957 -16.5151 0.0 -29.8263 0.0 
  7.881669921875 19.706800537109373 9.058330078125 65.8108 79.8439 -198.491 6.95453 -19.3278 6.2853 -5.61038 8.46288 4.60438 -22.2459 44.2181 18.1701 -12.9547 -62.9113 12.1526 -111.6957 -3.64022 2.48629 -46.9925 -15.6855 -335.537 0.0 56.7389 0.0 13.7136 -3.0604 -14.3289 0.0 0.0 0.0 0.0 0.0 0.0 118.5151 -3.29895 -1.6257 45.7533 5.36813 0.339489 0.0 1.46348 0.0 -6.53228 -3.4562 -24.5452 0.0 0.0 0.0 0.0 0.0 0.0 -7.28135 -31.1653 4.51497 0.0 24.4486 0.0 8.03668 3.0046997 27.9508 0.0 -13.29544 0.0 9.66084 2.20085 367.741 0.0 30.8159 0.0 13.1038 -7.080099 -14.3464 0.0 -33.7754 0.0 
